<svg viewBox="0 0 269 43" xmlns="http://www.w3.org/2000/svg" data-logo="logo">
        <g transform="translate(0, 1) rotate(0)" id="logogram" style="opacity: 1;"><path fill="#AC00EB" d="M20.6035 40.0799C31.6493 40.0799 40.6035 31.1256 40.6035 20.0799C40.6035 9.03425 31.6493 0.0799561 20.6035 0.0799561C9.55781 0.0799561 0.603516 9.03425 0.603516 20.0799C0.603516 31.1256 9.55781 40.0799 20.6035 40.0799ZM23.6905 15.5325C25.3953 13.8276 25.3953 11.0635 23.6905 9.35861C21.9856 7.65373 19.2215 7.65373 17.5166 9.35861C15.8118 11.0635 15.8118 13.8276 17.5166 15.5325L20.6035 18.6194L23.6905 15.5325ZM25.151 23.1669C26.8559 24.8718 29.62 24.8718 31.3249 23.1669C33.0297 21.462 33.0297 18.6979 31.3249 16.993C29.62 15.2882 26.8559 15.2882 25.151 16.993L22.0641 20.08L25.151 23.1669ZM23.6905 30.8013C25.3953 29.0964 25.3953 26.3323 23.6905 24.6274L20.6035 21.5405L17.5166 24.6274C15.8118 26.3323 15.8118 29.0964 17.5166 30.8013C19.2215 32.5062 21.9856 32.5062 23.6905 30.8013ZM9.88214 23.1669C8.17731 21.462 8.17731 18.6979 9.88214 16.993C11.5871 15.2882 14.3512 15.2882 16.0561 16.993L19.143 20.08L16.0561 23.1669C14.3512 24.8718 11.5871 24.8718 9.88214 23.1669Z" clip-rule="evenodd" fill-rule="evenodd"></path></g>
        <g transform="translate(47, 7.5)" id="logotype" style="opacity: 1;"><path d="M22.84 28L6.70 28L6.70 22.26L8.45 22.26L8.45 6.51L6.70 6.51L6.70 0.77L27.63 0.77L27.63 9.83L21.44 9.83L21.44 6.51L18.25 6.51L18.25 12.32L23.54 12.32L23.54 16.31L18.25 16.31L18.25 22.26L22.84 22.26L22.84 28ZM37.78 28.49Q32.81 28.49 30.01 25.88Q27.21 23.27 27.21 18.27L27.21 18.27Q27.21 13.26 30.01 10.66Q32.81 8.05 37.78 8.05L37.78 8.05Q42.82 8.05 45.59 10.69Q48.35 13.33 48.35 18.27L48.35 18.27Q48.35 23.27 45.55 25.88Q42.75 28.49 37.78 28.49L37.78 28.49ZM37.78 22.26Q38.80 22.26 39.30 21.72Q39.81 21.17 39.81 20.02L39.81 20.02L39.81 16.52Q39.81 15.36 39.30 14.82Q38.80 14.28 37.78 14.28L37.78 14.28Q36.77 14.28 36.26 14.82Q35.75 15.36 35.75 16.52L35.75 16.52L35.75 20.02Q35.75 21.17 36.26 21.72Q36.77 22.26 37.78 22.26L37.78 22.26ZM64.42 8.05Q65.12 8.05 65.75 8.19Q66.38 8.33 66.80 8.54L66.80 8.54L66.80 15.22Q65.36 14.63 63.72 14.63L63.72 14.63Q61.51 14.63 60.32 15.78Q59.13 16.94 59.13 19.21L59.13 19.21L59.13 22.26L62.28 22.26L62.28 28L49.54 28L49.54 22.26L51.08 22.26L51.08 14.28L49.54 14.28L49.54 8.54L59.13 8.54L59.13 11.09Q60.11 9.63 61.37 8.84Q62.63 8.05 64.42 8.05L64.42 8.05ZM101.72 22.26L103.27 22.26L103.27 28L92.20 28L92.20 22.26L93.67 22.26L93.67 16.52Q93.67 15.36 93.19 14.82Q92.69 14.28 91.72 14.28L91.72 14.28Q89.61 14.28 89.61 16.52L89.61 16.52L89.61 22.26L91.08 22.26L91.08 28L80.09 28L80.09 22.26L81.56 22.26L81.56 16.52Q81.56 15.36 81.08 14.82Q80.58 14.28 79.60 14.28L79.60 14.28Q77.50 14.28 77.50 16.52L77.50 16.52L77.50 22.26L78.97 22.26L78.97 28L67.91 28L67.91 22.26L69.45 22.26L69.45 14.28L67.91 14.28L67.91 8.54L77.50 8.54L77.50 11.27Q80.03 8.05 83.81 8.05L83.81 8.05Q85.94 8.05 87.29 9.05Q88.63 10.04 89.19 11.86L89.19 11.86Q90.45 10.04 92.08 9.06Q93.71 8.08 95.91 8.08L95.91 8.08Q98.82 8.08 100.27 9.90Q101.72 11.72 101.72 14.91L101.72 14.91L101.72 22.26ZM124.61 6.51L124.61 0.77L136.09 0.77L136.09 6.51L134.34 6.51L134.34 28L124.51 28L114.25 12.21L114.25 22.26L115.94 22.26L115.94 28L104.45 28L104.45 22.26L106.20 22.26L106.20 6.51L104.45 6.51L104.45 0.77L117.09 0.77L126.30 14.80L126.30 6.51L124.61 6.51ZM147.78 28.49Q142.81 28.49 140.01 25.88Q137.22 23.27 137.22 18.27L137.22 18.27Q137.22 13.26 140.01 10.66Q142.81 8.05 147.78 8.05L147.78 8.05Q152.72 8.05 154.91 10.62Q157.09 13.19 157.09 17.01L157.09 17.01L157.09 19.53L145.75 19.53L145.75 19.74Q145.75 21.04 146.53 21.65Q147.29 22.26 149.08 22.26L149.08 22.26Q151.22 22.26 153.14 21.95Q155.06 21.63 156.50 21.14L156.50 21.14L156.50 26.74Q155.28 27.41 152.91 27.95Q150.55 28.49 147.78 28.49L147.78 28.49ZM145.75 15.68L149.81 15.68L149.81 15.26Q149.81 14.07 149.31 13.54Q148.80 13.02 147.78 13.02L147.78 13.02Q146.77 13.02 146.26 13.56Q145.75 14.10 145.75 15.26L145.75 15.26L145.75 15.68ZM173.72 17.99L178.23 22.26L179.35 22.26L179.35 28L168.44 28L168.44 22.26L169.41 22.26L168.05 20.20L167.70 20.20L166.33 22.26L167.31 22.26L167.31 28L157.93 28L157.93 22.26L159.40 22.26L163.64 18.48L159.19 14.28L158.07 14.28L158.07 8.54L168.99 8.54L168.99 14.28L168.01 14.28L169.38 16.31L169.73 16.31L171.09 14.28L170.11 14.28L170.11 8.54L179.21 8.54L179.21 14.28L177.74 14.28L173.72 17.99ZM201.89 22.26L203.43 22.26L203.43 28L193.84 28L193.84 25.27Q191.32 28.49 187.54 28.49L187.54 28.49Q184.64 28.49 183.19 26.67Q181.73 24.85 181.73 21.66L181.73 21.66L181.73 14.28L180.19 14.28L180.19 8.54L189.78 8.54L189.78 20.02Q189.78 21.17 190.29 21.72Q190.80 22.26 191.81 22.26L191.81 22.26Q192.83 22.26 193.34 21.72Q193.84 21.17 193.84 20.02L193.84 20.02L193.84 14.28L191.95 14.28L191.95 8.54L201.89 8.54L201.89 22.26ZM212.92 28.49Q208.51 28.49 204.41 27.09L204.41 27.09L204.41 21.91L210.08 21.91L210.08 22.26Q210.08 23.94 212.22 23.94L212.22 23.94Q214.11 23.94 214.11 22.64L214.11 22.64Q214.11 21.95 213.57 21.59Q213.02 21.24 211.66 21L211.66 21L209.91 20.68Q204.41 19.70 204.41 14.45L204.41 14.45Q204.41 11.41 206.72 9.73Q209.03 8.05 212.95 8.05L212.95 8.05Q217.33 8.05 220.34 9.52L220.34 9.52L220.34 14.38L215.02 14.38L215.02 14.03Q215.02 13.33 214.55 12.97Q214.07 12.60 213.16 12.60L213.16 12.60Q211.41 12.60 211.41 13.72L211.41 13.72Q211.41 14.31 211.90 14.63Q212.39 14.94 213.69 15.22L213.69 15.22L215.68 15.61Q218.80 16.20 220.13 17.81Q221.46 19.42 221.46 21.95L221.46 21.95Q221.46 25.13 219.24 26.81Q217.01 28.49 212.92 28.49L212.92 28.49Z" fill="#ac00eb"></path></g>
        
      </svg>